<svg width="32" height="32" viewBox="0 0 32 32" fill="none" xmlns="http://www.w3.org/2000/svg">
<circle cx="16" cy="16" r="16" fill="#F4F7FA"/>
<path d="M11.0004 11.1066L11 19.125C11 20.7819 12.2894 22.1375 13.9195 22.2434L14.125 22.25L19.643 22.2509C19.3854 22.9787 18.6911 23.5 17.875 23.5H13.5C11.4289 23.5 9.75 21.8211 9.75 19.75V12.875C9.75 12.0585 10.2719 11.3639 11.0004 11.1066ZM20.375 8.5C21.4105 8.5 22.25 9.33947 22.25 10.375V19.125C22.25 20.1605 21.4105 21 20.375 21H14.125C13.0895 21 12.25 20.1605 12.25 19.125V10.375C12.25 9.33947 13.0895 8.5 14.125 8.5H20.375ZM20.375 9.75H14.125C13.7798 9.75 13.5 10.0298 13.5 10.375V19.125C13.5 19.4702 13.7798 19.75 14.125 19.75H20.375C20.7202 19.75 21 19.4702 21 19.125V10.375C21 10.0298 20.7202 9.75 20.375 9.75Z" fill="#091420"/>
</svg>
